<svg width="1200" height="700" viewBox="0 0 1200 700" xmlns="http://www.w3.org/2000/svg" role="img" aria-label="Resume builder editor preview">
  <rect width="1200" height="700" fill="#f4f4f5" />
  <rect x="60" y="60" width="1080" height="80" rx="12" fill="#ffffff" stroke="#e4e4e7" />
  <rect x="80" y="90" width="220" height="20" rx="10" fill="#cbd5f5" />
  <rect x="60" y="170" width="640" height="470" rx="18" fill="#ffffff" stroke="#e4e4e7" />
  <rect x="730" y="170" width="410" height="470" rx="18" fill="#ffffff" stroke="#e4e4e7" />
  <rect x="90" y="210" width="220" height="18" rx="9" fill="#d1d5db" />
  <rect x="90" y="250" width="520" height="14" rx="7" fill="#e5e7eb" />
  <rect x="90" y="290" width="520" height="14" rx="7" fill="#e5e7eb" />
  <rect x="90" y="330" width="520" height="14" rx="7" fill="#e5e7eb" />
  <rect x="760" y="210" width="180" height="18" rx="9" fill="#d1d5db" />
  <rect x="760" y="250" width="340" height="14" rx="7" fill="#e5e7eb" />
  <rect x="760" y="290" width="340" height="14" rx="7" fill="#e5e7eb" />
  <rect x="760" y="330" width="280" height="14" rx="7" fill="#e5e7eb" />
  <rect x="90" y="380" width="520" height="14" rx="7" fill="#e5e7eb" />
  <rect x="90" y="420" width="520" height="14" rx="7" fill="#e5e7eb" />
  <rect x="90" y="460" width="420" height="14" rx="7" fill="#e5e7eb" />
</svg>
